0
SECTION
2
HEADER
9
$ACADVER
1
AC1009
9
$DWGCODEPAGE
3
ANSI_1251
9
$INSUNITS
70
4
9
$EXTMIN
10
0.0
20
0.0
30
0.0
9
$EXTMAX
10
420.0
20
297.0
30
0.0
0
ENDSEC
0
SECTION
2
TABLES
0
TABLE
2
LTYPE
70
1
0
LTYPE
2
CONTINUOUS
70
64
3
Solid line
72
65
73
0
40
0.0
0
ENDTAB
0
TABLE
2
LAYER
70
4
0
LAYER
2
0
70
0
62
7
6
CONTINUOUS
0
LAYER
2
GRAPH
70
0
62
7
6
CONTINUOUS
0
LAYER
2
DIM
70
0
62
3
6
CONTINUOUS
0
LAYER
2
TEXT
70
0
62
2
6
CONTINUOUS
0
LAYER
2
TABLE
70
0
62
5
6
CONTINUOUS
0
ENDTAB
0
TABLE
2
STYLE
70
1
0
STYLE
2
STANDARD
70
0
40
0.0
41
1.0
50
0.0
71
0
42
2.5
3
txt
4

0
ENDTAB
0
ENDSEC
0
SECTION
2
ENTITIES
0
LINE
8
GRAPH
10
5.00
20
5.00
30
0.0
11
415.00
21
5.00
31
0.0
0
LINE
8
GRAPH
10
415.00
20
5.00
30
0.0
11
415.00
21
292.00
31
0.0
0
LINE
8
GRAPH
10
415.00
20
292.00
30
0.0
11
5.00
21
292.00
31
0.0
0
LINE
8
GRAPH
10
5.00
20
292.00
30
0.0
11
5.00
21
5.00
31
0.0
0
LINE
8
GRAPH
10
10.00
20
10.00
30
0.0
11
410.00
21
10.00
31
0.0
0
LINE
8
GRAPH
10
410.00
20
10.00
30
0.0
11
410.00
21
287.00
31
0.0
0
LINE
8
GRAPH
10
410.00
20
287.00
30
0.0
11
10.00
21
287.00
31
0.0
0
LINE
8
GRAPH
10
10.00
20
287.00
30
0.0
11
10.00
21
10.00
31
0.0
0
LINE
8
GRAPH
10
30.00
20
120.00
30
0.0
11
260.00
21
120.00
31
0.0
0
LINE
8
GRAPH
10
260.00
20
120.00
30
0.0
11
260.00
21
250.00
31
0.0
0
LINE
8
GRAPH
10
260.00
20
250.00
30
0.0
11
30.00
21
250.00
31
0.0
0
LINE
8
GRAPH
10
30.00
20
250.00
30
0.0
11
30.00
21
120.00
31
0.0
0
LINE
8
GRAPH
10
60.00
20
150.00
30
0.0
11
230.00
21
150.00
31
0.0
0
LINE
8
GRAPH
10
230.00
20
150.00
30
0.0
11
230.00
21
230.00
31
0.0
0
LINE
8
GRAPH
10
230.00
20
230.00
30
0.0
11
60.00
21
230.00
31
0.0
0
LINE
8
GRAPH
10
60.00
20
230.00
30
0.0
11
60.00
21
150.00
31
0.0
0
LINE
8
DIM
10
30.00
20
110.00
30
0.0
11
260.00
21
110.00
31
0.0
0
LINE
8
DIM
10
30.00
20
106.00
30
0.0
11
30.00
21
114.00
31
0.0
0
LINE
8
DIM
10
260.00
20
106.00
30
0.0
11
260.00
21
114.00
31
0.0
0
TEXT
8
TEXT
10
40.00
20
240.00
30
0.0
40
6.00
1
ГЕНПЛАН УЧАСТКА. ЗДАНИЕ А
7
STANDARD
72
0
0
TEXT
8
TEXT
10
110.00
20
185.00
30
0.0
40
5.00
1
ЗДАНИЕ А
7
STANDARD
72
0
0
TEXT
8
DIM
10
70.00
20
98.00
30
0.0
40
3.50
1
длина участка L=12.50 м
7
STANDARD
72
0
0
TEXT
8
DIM
10
70.00
20
90.00
30
0.0
40
2.50
1
по обмеру длина участка L=11.80 м
7
STANDARD
72
0
0
TEXT
8
DIM
10
150.00
20
255.00
30
0.0
40
3.50
1
отметка чистого пола +0.150
7
STANDARD
72
0
0
TEXT
8
DIM
10
150.00
20
248.00
30
0.0
40
2.50
1
в разрезе отметка чистого пола +0.250
7
STANDARD
72
0
0
TEXT
8
TEXT
10
30.00
20
78.00
30
0.0
40
3.50
1
ПРИМЕЧАНИЯ:
7
STANDARD
72
0
0
TEXT
8
TEXT
10
30.00
20
70.00
30
0.0
40
2.50
1
1. Согласно экспликации площадь застройки принята 2450 м2.
7
STANDARD
72
0
0
TEXT
8
TEXT
10
30.00
20
63.00
30
0.0
40
2.50
1
2. При этом по расчёту ПЗУ площадь равна 2180 м2.
7
STANDARD
72
0
0
TEXT
8
TEXT
10
30.00
20
56.00
30
0.0
40
2.50
1
3. Расхождение не устранено, требуется согласование с ГИПом.
7
STANDARD
72
0
0
TEXT
8
TEXT
10
30.00
20
49.00
30
0.0
40
2.50
1
4. По ведомости счетчик ВСХН-20 количество 7 шт.
7
STANDARD
72
0
0
TEXT
8
TEXT
10
30.00
20
42.00
30
0.0
40
2.50
1
5. Однако по заданию требуется 4 шт ВСХН-20.
7
STANDARD
72
0
0
LINE
8
TABLE
10
275.00
20
250.00
30
0.0
11
405.00
21
250.00
31
0.0
0
LINE
8
TABLE
10
275.00
20
241.00
30
0.0
11
405.00
21
241.00
31
0.0
0
LINE
8
TABLE
10
275.00
20
232.00
30
0.0
11
405.00
21
232.00
31
0.0
0
LINE
8
TABLE
10
275.00
20
223.00
30
0.0
11
405.00
21
223.00
31
0.0
0
LINE
8
TABLE
10
275.00
20
214.00
30
0.0
11
405.00
21
214.00
31
0.0
0
LINE
8
TABLE
10
275.00
20
205.00
30
0.0
11
405.00
21
205.00
31
0.0
0
LINE
8
TABLE
10
275.00
20
196.00
30
0.0
11
405.00
21
196.00
31
0.0
0
LINE
8
TABLE
10
275.00
20
250.00
30
0.0
11
275.00
21
196.00
31
0.0
0
LINE
8
TABLE
10
287.00
20
250.00
30
0.0
11
287.00
21
196.00
31
0.0
0
LINE
8
TABLE
10
365.00
20
250.00
30
0.0
11
365.00
21
196.00
31
0.0
0
LINE
8
TABLE
10
379.00
20
250.00
30
0.0
11
379.00
21
196.00
31
0.0
0
LINE
8
TABLE
10
405.00
20
250.00
30
0.0
11
405.00
21
196.00
31
0.0
0
TEXT
8
TABLE
10
275.00
20
254.00
30
0.0
40
3.50
1
ВЕДОМОСТЬ ОБОРУДОВАНИЯ
7
STANDARD
72
0
0
TEXT
8
TABLE
10
276.50
20
234.50
30
0.0
40
2.40
1
Поз
7
STANDARD
72
0
0
TEXT
8
TABLE
10
288.50
20
234.50
30
0.0
40
2.40
1
Наименование
7
STANDARD
72
0
0
TEXT
8
TABLE
10
366.50
20
234.50
30
0.0
40
2.40
1
Кол
7
STANDARD
72
0
0
TEXT
8
TABLE
10
380.50
20
234.50
30
0.0
40
2.40
1
Примечание
7
STANDARD
72
0
0
TEXT
8
TABLE
10
276.50
20
225.50
30
0.0
40
2.20
1
1
7
STANDARD
72
0
0
TEXT
8
TABLE
10
288.50
20
225.50
30
0.0
40
2.20
1
Счетчик холодной воды ВСХН-15 Ду15
7
STANDARD
72
0
0
TEXT
8
TABLE
10
366.50
20
225.50
30
0.0
40
2.20
1
2
7
STANDARD
72
0
0
TEXT
8
TABLE
10
380.50
20
225.50
30
0.0
40
2.20
1
Подвал
7
STANDARD
72
0
0
TEXT
8
TABLE
10
276.50
20
216.50
30
0.0
40
2.20
1
2
7
STANDARD
72
0
0
TEXT
8
TABLE
10
288.50
20
216.50
30
0.0
40
2.20
1
счетчик ВСХН-20 количество 7 шт
7
STANDARD
72
0
0
TEXT
8
TABLE
10
366.50
20
216.50
30
0.0
40
2.20
1
7
7
STANDARD
72
0
0
TEXT
8
TABLE
10
380.50
20
216.50
30
0.0
40
2.20
1
Ошибка
7
STANDARD
72
0
0
TEXT
8
TABLE
10
276.50
20
207.50
30
0.0
40
2.20
1
3
7
STANDARD
72
0
0
TEXT
8
TABLE
10
288.50
20
207.50
30
0.0
40
2.20
1
Счетчик холодной воды ВСХН-40 Ду40
7
STANDARD
72
0
0
TEXT
8
TABLE
10
366.50
20
207.50
30
0.0
40
2.20
1
1
7
STANDARD
72
0
0
TEXT
8
TABLE
10
380.50
20
207.50
30
0.0
40
2.20
1
ИТП
7
STANDARD
72
0
0
TEXT
8
TABLE
10
276.50
20
198.50
30
0.0
40
2.20
1
4
7
STANDARD
72
0
0
TEXT
8
TABLE
10
288.50
20
198.50
30
0.0
40
2.20
1
Задвижка клиновая Ду100 Ру16
7
STANDARD
72
0
0
TEXT
8
TABLE
10
366.50
20
198.50
30
0.0
40
2.20
1
4
7
STANDARD
72
0
0
TEXT
8
TABLE
10
380.50
20
198.50
30
0.0
40
2.20
1
Ввод
7
STANDARD
72
0
0
TEXT
8
TABLE
10
276.50
20
189.50
30
0.0
40
2.20
1
5
7
STANDARD
72
0
0
TEXT
8
TABLE
10
288.50
20
189.50
30
0.0
40
2.20
1
по заданию требуется 4 шт ВСХН-20
7
STANDARD
72
0
0
TEXT
8
TABLE
10
366.50
20
189.50
30
0.0
40
2.20
1
4
7
STANDARD
72
0
0
TEXT
8
TABLE
10
380.50
20
189.50
30
0.0
40
2.20
1
По заданию
7
STANDARD
72
0
0
LINE
8
GRAPH
10
275.00
20
20.00
30
0.0
11
405.00
21
20.00
31
0.0
0
LINE
8
GRAPH
10
405.00
20
20.00
30
0.0
11
405.00
21
60.00
31
0.0
0
LINE
8
GRAPH
10
405.00
20
60.00
30
0.0
11
275.00
21
60.00
31
0.0
0
LINE
8
GRAPH
10
275.00
20
60.00
30
0.0
11
275.00
21
20.00
31
0.0
0
LINE
8
GRAPH
10
275.00
20
33.00
30
0.0
11
405.00
21
33.00
31
0.0
0
LINE
8
GRAPH
10
275.00
20
46.00
30
0.0
11
405.00
21
46.00
31
0.0
0
LINE
8
GRAPH
10
330.00
20
20.00
30
0.0
11
330.00
21
60.00
31
0.0
0
TEXT
8
TEXT
10
277.00
20
50.00
30
0.0
40
2.60
1
Объект
7
STANDARD
72
0
0
TEXT
8
TEXT
10
333.00
20
50.00
30
0.0
40
2.60
1
Жилой дом Северный квартал
7
STANDARD
72
0
0
TEXT
8
TEXT
10
277.00
20
37.00
30
0.0
40
2.60
1
Масштаб
7
STANDARD
72
0
0
TEXT
8
TEXT
10
333.00
20
37.00
30
0.0
40
2.80
1
масштаб чертежа 1:100
7
STANDARD
72
0
0
TEXT
8
TEXT
10
277.00
20
24.00
30
0.0
40
2.40
1
По заданию
7
STANDARD
72
0
0
TEXT
8
TEXT
10
333.00
20
24.00
30
0.0
40
2.40
1
в задании указан масштаб 1:200
7
STANDARD
72
0
0
ENDSEC
0
EOF
